<svg width="40" height="42" viewBox="0 0 40 42" fill="none" xmlns="http://www.w3.org/2000/svg">
<path d="M39.906 36.3231L38.2307 29.6282L31.5494 2.82695C31.3508 2.05046 30.8747 1.38951 30.2246 0.987834C29.5744 0.586157 28.8028 0.476241 28.0775 0.681988L21.8403 2.48029C21.6845 2.52265 21.535 2.58829 21.3963 2.67529C21.1453 2.22617 20.7904 1.85442 20.3659 1.59624C19.9414 1.33806 19.4619 1.20223 18.974 1.20198H12.5148C11.9372 1.19847 11.3729 1.38775 10.9 1.74364C10.427 1.38775 9.86274 1.19847 9.28517 1.20198H2.82592C2.07644 1.20198 1.35766 1.52156 0.827693 2.09041C0.29773 2.65926 0 3.43079 0 4.23527V38.9014C0 39.7059 0.29773 40.4774 0.827693 41.0463C1.35766 41.6151 2.07644 41.9347 2.82592 41.9347H9.28517C9.86274 41.9382 10.427 41.7489 10.9 41.393C11.3729 41.7489 11.9372 41.9382 12.5148 41.9347H18.974C19.7235 41.9347 20.4423 41.6151 20.9723 41.0463C21.5022 40.4774 21.8 39.7059 21.8 38.9014V14.0284L28.1987 39.6814C28.3625 40.3282 28.7201 40.8993 29.2162 41.3065C29.7122 41.7137 30.3193 41.9344 30.9438 41.9347C31.1893 41.9305 31.4333 41.8942 31.6705 41.8264L37.9077 40.028C38.6296 39.8197 39.2452 39.3129 39.6197 38.6185C39.9942 37.9242 40.0972 37.0988 39.906 36.3231ZM24.1616 13.4868L31.1861 11.4718L35.5864 29.0432L28.562 31.0582L24.1616 13.4868ZM22.2239 5.21025C22.2756 5.10729 22.3624 5.02969 22.4661 4.99359L28.7033 3.19528H28.8042C28.8919 3.1974 28.977 3.22734 29.0489 3.28133C29.1207 3.33531 29.176 3.41091 29.2079 3.49861L30.5603 8.95853L23.5359 10.9735L22.1835 5.53525C22.1588 5.42529 22.1732 5.30943 22.2239 5.21025ZM12.5148 3.80194H18.974C19.0811 3.80194 19.1838 3.84759 19.2595 3.92886C19.3352 4.01012 19.3777 4.12034 19.3777 4.23527V30.6682H12.1111V4.23527C12.1111 4.12034 12.1536 4.01012 12.2293 3.92886C12.305 3.84759 12.4077 3.80194 12.5148 3.80194ZM2.82592 3.80194H9.28517C9.39224 3.80194 9.49492 3.84759 9.57063 3.92886C9.64634 4.01012 9.68887 4.12034 9.68887 4.23527V9.86851H2.42222V4.23527C2.42222 4.12034 2.46475 4.01012 2.54046 3.92886C2.61617 3.84759 2.71885 3.80194 2.82592 3.80194ZM9.28517 39.3347H2.82592C2.71885 39.3347 2.61617 39.2891 2.54046 39.2078C2.46475 39.1265 2.42222 39.0163 2.42222 38.9014V12.4685H9.68887V38.9014C9.68887 39.0163 9.64634 39.1265 9.57063 39.2078C9.49492 39.2891 9.39224 39.3347 9.28517 39.3347ZM18.974 39.3347H12.5148C12.4077 39.3347 12.305 39.2891 12.2293 39.2078C12.1536 39.1265 12.1111 39.0163 12.1111 38.9014V33.2682H19.3777V38.9014C19.3777 39.0163 19.3352 39.1265 19.2595 39.2078C19.1838 39.2891 19.0811 39.3347 18.974 39.3347ZM37.282 37.5148L31.0448 39.3131C30.9931 39.3295 30.9388 39.3347 30.8853 39.3282C30.8317 39.3218 30.7799 39.3039 30.7328 39.2757C30.6858 39.2474 30.6445 39.2093 30.6114 39.1636C30.5783 39.118 30.5541 39.0656 30.5401 39.0097L29.1877 33.5715L36.2122 31.5565L37.5646 36.9948C37.5797 37.0488 37.5843 37.1057 37.5781 37.1617C37.5719 37.2178 37.5551 37.2719 37.5286 37.3207C37.502 37.3695 37.4665 37.4118 37.4241 37.4452C37.3816 37.4786 37.3333 37.5023 37.282 37.5148Z" fill="#F39237"/>
</svg>
