<svg width="25" height="41" viewBox="0 0 25 41" fill="none" xmlns="http://www.w3.org/2000/svg">
<path d="M20.1923 0H4.80769C3.53261 0 2.30976 0.490867 1.40814 1.36462C0.506523 2.23837 0 3.42342 0 4.65909V36.3409C0 37.5766 0.506523 38.7616 1.40814 39.6354C2.30976 40.5091 3.53261 41 4.80769 41H20.1923C21.4674 41 22.6902 40.5091 23.5919 39.6354C24.4935 38.7616 25 37.5766 25 36.3409V4.65909C25 3.42342 24.4935 2.23837 23.5919 1.36462C22.6902 0.490867 21.4674 0 20.1923 0V0ZM12.5 39.1364C10.9038 39.1364 9.61538 37.8877 9.61538 36.3409C9.61538 34.7941 10.9038 33.5455 12.5 33.5455C14.0962 33.5455 15.3846 34.7941 15.3846 36.3409C15.3846 37.8877 14.0962 39.1364 12.5 39.1364ZM21.1538 31.6818H3.84615V5.59091H21.1538V31.6818Z" fill="#F39237"/>
</svg>
