<svg width="40" height="40" viewBox="0 0 40 40" fill="none" xmlns="http://www.w3.org/2000/svg">
<path d="M30 5.00009H11.39C10.9968 3.88807 10.2232 2.95083 9.20586 2.35404C8.1885 1.75724 6.99293 1.53931 5.83043 1.73877C4.66794 1.93822 3.61338 2.54221 2.85315 3.44399C2.09291 4.34577 1.67594 5.48728 1.67594 6.66676C1.67594 7.84624 2.09291 8.98774 2.85315 9.88953C3.61338 10.7913 4.66794 11.3953 5.83043 11.5948C6.99293 11.7942 8.1885 11.5763 9.20586 10.9795C10.2232 10.3827 10.9968 9.44545 11.39 8.33343H30C31.3261 8.33343 32.5978 8.86021 33.5355 9.79789C34.4732 10.7356 35 12.0073 35 13.3334C35 14.6595 34.4732 15.9313 33.5355 16.869C32.5978 17.8066 31.3261 18.3334 30 18.3334H24.72C24.3693 17.3687 23.7302 16.5353 22.8895 15.9464C22.0488 15.3575 21.0473 15.0416 20.0208 15.0416C18.9944 15.0416 17.9928 15.3575 17.1521 15.9464C16.3114 16.5353 15.6723 17.3687 15.3217 18.3334H9.99999C7.78985 18.3334 5.67024 19.2114 4.10743 20.7742C2.54463 22.337 1.66666 24.4566 1.66666 26.6668C1.66666 28.8769 2.54463 30.9965 4.10743 32.5593C5.67024 34.1221 7.78985 35.0001 9.99999 35.0001H20V40.0001L26.6667 33.3334L20 26.6668V31.6668H9.99999C8.67391 31.6668 7.40214 31.14 6.46446 30.2023C5.52677 29.2646 4.99999 27.9928 4.99999 26.6668C4.99999 25.3407 5.52677 24.0689 6.46446 23.1312C7.40214 22.1935 8.67391 21.6668 9.99999 21.6668H15.3383C15.6922 22.6259 16.3316 23.4534 17.1704 24.0379C18.0091 24.6225 19.0068 24.9358 20.0292 24.9358C21.0515 24.9358 22.0492 24.6225 22.8879 24.0379C23.7267 23.4534 24.3661 22.6259 24.72 21.6668H30C32.2101 21.6668 34.3297 20.7888 35.8925 19.226C37.4553 17.6632 38.3333 15.5436 38.3333 13.3334C38.3333 11.1233 37.4553 9.00367 35.8925 7.44087C34.3297 5.87807 32.2101 5.00009 30 5.00009ZM6.66666 8.33343C6.33702 8.33343 6.01479 8.23568 5.74071 8.05254C5.46662 7.86941 5.253 7.60911 5.12686 7.30456C5.00071 7.00002 4.96771 6.66491 5.03201 6.34161C5.09632 6.01831 5.25506 5.72133 5.48814 5.48825C5.72123 5.25516 6.0182 5.09643 6.34151 5.03212C6.66481 4.96781 6.99992 5.00081 7.30446 5.12696C7.609 5.25311 7.8693 5.46673 8.05244 5.74081C8.23557 6.01489 8.33332 6.33712 8.33332 6.66676C8.33332 7.10879 8.15773 7.53271 7.84517 7.84527C7.53261 8.15783 7.10868 8.33343 6.66666 8.33343ZM20 21.6668C19.6704 21.6668 19.3481 21.569 19.074 21.3859C18.8 21.2027 18.5863 20.9424 18.4602 20.6379C18.334 20.3334 18.301 19.9982 18.3653 19.6749C18.4297 19.3516 18.5884 19.0547 18.8215 18.8216C19.0546 18.5885 19.3515 18.4298 19.6748 18.3655C19.9981 18.3011 20.3333 18.3341 20.6378 18.4603C20.9423 18.5864 21.2026 18.8001 21.3858 19.0741C21.5689 19.3482 21.6667 19.6705 21.6667 20.0001C21.6667 20.4421 21.4911 20.866 21.1785 21.1786C20.8659 21.4912 20.442 21.6668 20 21.6668Z" fill="#F39237"/>
<path d="M33.3333 28.3333C32.3444 28.3333 31.3777 28.6265 30.5555 29.1759C29.7332 29.7253 29.0924 30.5062 28.7139 31.4198C28.3355 32.3335 28.2365 33.3388 28.4294 34.3087C28.6223 35.2786 29.0985 36.1695 29.7978 36.8688C30.497 37.568 31.388 38.0443 32.3579 38.2372C33.3278 38.4301 34.3331 38.3311 35.2467 37.9527C36.1604 37.5742 36.9413 36.9333 37.4907 36.1111C38.0401 35.2889 38.3333 34.3222 38.3333 33.3333C38.3333 32.0072 37.8065 30.7354 36.8688 29.7977C35.9312 28.86 34.6594 28.3333 33.3333 28.3333ZM33.3333 34.9999C33.0037 34.9999 32.6814 34.9022 32.4074 34.719C32.1333 34.5359 31.9197 34.2756 31.7935 33.9711C31.6674 33.6665 31.6344 33.3314 31.6987 33.0081C31.763 32.6848 31.9217 32.3878 32.1548 32.1547C32.3879 31.9217 32.6849 31.7629 33.0082 31.6986C33.3315 31.6343 33.6666 31.6673 33.9711 31.7935C34.2757 31.9196 34.536 32.1332 34.7191 32.4073C34.9022 32.6814 35 33.0036 35 33.3333C35 33.7753 34.8244 34.1992 34.5118 34.5118C34.1993 34.8243 33.7753 34.9999 33.3333 34.9999Z" fill="#F39237"/>
</svg>
