<svg width="45" height="48" viewBox="0 0 45 48" fill="none" xmlns="http://www.w3.org/2000/svg">
<path d="M24.1875 21.0129C23.0625 20.7222 21.9375 20.1406 21.0938 19.2683C20.25 18.9775 19.9688 18.1052 19.9688 17.5237C19.9688 16.9421 20.25 16.0698 20.8125 15.7791C21.6562 15.1975 22.5 14.616 23.3438 14.9067C25.0312 14.9067 26.4375 15.7791 27.2812 16.9421L29.8125 13.4529C28.9688 12.5806 28.125 11.999 27.2812 11.4175C26.4375 10.8359 25.3125 10.5452 24.1875 10.5452V6.47437H20.8125V10.5452C19.4062 10.8359 18 11.7083 16.875 12.8713C15.75 14.3252 14.9062 16.0698 15.1875 17.8145C15.1875 19.5591 15.75 21.3037 16.875 22.4668C18.2812 23.9207 20.25 24.793 21.9375 25.6653C22.7812 25.9561 23.9062 26.5376 24.75 27.1191C25.3125 27.7007 25.5938 28.573 25.5938 29.4453C25.5938 30.3176 25.3125 31.1899 24.75 32.0623C23.9062 32.9346 22.7812 33.2253 21.9375 33.2253C20.8125 33.2253 19.4063 32.9346 18.5625 32.0623C17.7188 31.4807 16.875 30.6084 16.3125 29.7361L13.5 32.9346C14.3438 34.0977 15.1875 34.97 16.3125 35.8423C17.7188 36.7146 19.4062 37.5869 21.0938 37.5869V41.3669H24.1875V37.0054C25.875 36.7146 27.2813 35.8423 28.4063 34.6792C29.8125 33.2253 30.6562 30.8992 30.6562 28.8638C30.6562 27.1191 30.0938 25.0837 28.6875 23.9207C27.2812 22.4668 25.875 21.5945 24.1875 21.0129ZM22.5 0.658936C10.125 0.658936 0 11.1267 0 23.9207C0 36.7146 10.125 47.1824 22.5 47.1824C34.875 47.1824 45 36.7146 45 23.9207C45 11.1267 34.875 0.658936 22.5 0.658936ZM22.5 43.9839C11.8125 43.9839 3.09375 34.97 3.09375 23.9207C3.09375 12.8713 11.8125 3.85742 22.5 3.85742C33.1875 3.85742 41.9062 12.8713 41.9062 23.9207C41.9062 34.97 33.1875 43.9839 22.5 43.9839Z" fill="#F39237"/>
</svg>
