<svg width="33" height="37" viewBox="0 0 33 37" fill="none" xmlns="http://www.w3.org/2000/svg">
<path d="M17.6852 0.0487885C15.3244 -0.143896 12.9543 0.23561 10.7359 1.16151C8.51757 2.08741 6.50304 3.53798 4.82927 5.41463C3.1555 7.29128 1.86174 9.55 1.03594 12.0372C0.210139 14.5245 -0.12834 17.1819 0.043514 19.8289C0.637622 29.6172 8.26201 37 17.0086 37H23.0982C24.0059 37 24.7485 36.1673 24.7485 35.1497C24.7485 34.132 24.0059 33.2993 23.0982 33.2993H17.0416C10.886 33.2993 5.24196 28.8215 3.70718 22.1418C1.24823 11.4099 10.1599 1.39953 19.7316 4.17504C25.7057 5.87735 29.6994 12.2055 29.6994 19.1073V21.1426C29.6994 22.6044 28.5277 24.0476 27.224 24.0476C25.9202 24.0476 24.7485 22.6044 24.7485 21.1426V18.8297C24.7485 14.1854 21.811 10.0036 17.7182 9.35598C16.4161 9.13888 15.0865 9.2737 13.8402 9.74921C12.5939 10.2247 11.467 11.0271 10.5532 12.0897C9.6394 13.1523 8.96523 14.4442 8.5868 15.8579C8.20836 17.2717 8.13661 18.7663 8.37753 20.2175C8.66697 21.966 9.40009 23.5838 10.489 24.8769C11.5779 26.1699 12.9763 27.0834 14.5166 27.5078C17.5532 28.3034 20.4412 27.2117 22.3391 25.0468C23.8078 27.3042 26.7454 28.4885 29.4354 27.2857C31.6468 26.3051 33 23.7701 33 21.1056V19.0887C33 9.26346 26.4153 0.71491 17.6852 0.0487885V0.0487885ZM16.497 24.0476C13.7575 24.0476 11.5461 21.5682 11.5461 18.4966C11.5461 15.4251 13.7575 12.9456 16.497 12.9456C19.2365 12.9456 21.4479 15.4251 21.4479 18.4966C21.4479 21.5682 19.2365 24.0476 16.497 24.0476Z" fill="#F39237"/>
</svg>
