<svg width="34" height="38" viewBox="0 0 34 38" fill="none" xmlns="http://www.w3.org/2000/svg">
<path d="M31.1667 38H22.6667C21.9152 38 21.1946 37.6752 20.6632 37.0969C20.1318 36.5187 19.8333 35.7345 19.8333 34.9168V25.667H14.1667V34.9168C14.1667 35.7345 13.8682 36.5187 13.3368 37.0969C12.8054 37.6752 12.0848 38 11.3333 38H2.83333C2.08189 38 1.36122 37.6752 0.829864 37.0969C0.298511 36.5187 0 35.7345 0 34.9168V17.0918C0.000124925 16.664 0.0820581 16.2409 0.240589 15.8494C0.39912 15.4579 0.630779 15.1066 0.920833 14.8179L15.0875 0.808372C15.6098 0.288381 16.2921 0 17 0C17.7079 0 18.3902 0.288381 18.9125 0.808372L33.0792 14.8179C33.3692 15.1066 33.6009 15.4579 33.7594 15.8494C33.9179 16.2409 33.9999 16.664 34 17.0918V34.9168C34 35.7345 33.7015 36.5187 33.1701 37.0969C32.6388 37.6752 31.9181 38 31.1667 38ZM14.1667 22.5838H19.8333C20.5848 22.5838 21.3054 22.9086 21.8368 23.4868C22.3682 24.0651 22.6667 24.8493 22.6667 25.667V34.9168H31.1667V17.0918L17 3.08226L2.83333 17.0918V34.9168H11.3333V25.667C11.3333 24.8493 11.6318 24.0651 12.1632 23.4868C12.6946 22.9086 13.4152 22.5838 14.1667 22.5838Z" fill="#F39237"/>
</svg>
