<svg width="53" height="53" viewBox="0 0 53 53" fill="none" xmlns="http://www.w3.org/2000/svg">
<path d="M20.7031 16.5625C20.7031 17.0539 20.5574 17.5342 20.2844 17.9427C20.0114 18.3513 19.6234 18.6697 19.1695 18.8578C18.7155 19.0458 18.216 19.095 17.7341 18.9991C17.2522 18.9033 16.8095 18.6667 16.462 18.3192C16.1146 17.9718 15.878 17.5291 15.7821 17.0472C15.6863 16.5653 15.7354 16.0657 15.9235 15.6118C16.1115 15.1578 16.43 14.7698 16.8385 14.4968C17.2471 14.2238 17.7274 14.0781 18.2188 14.0781C18.8776 14.0781 19.5096 14.3399 19.9755 14.8058C20.4414 15.2717 20.7031 15.9036 20.7031 16.5625ZM47.2031 9.10938V43.8906C47.2031 44.7692 46.8541 45.6117 46.2329 46.2329C45.6117 46.8541 44.7692 47.2031 43.8906 47.2031H9.10938C8.23085 47.2031 7.3883 46.8541 6.76708 46.2329C6.14587 45.6117 5.79688 44.7692 5.79688 43.8906V9.10938C5.79688 8.23085 6.14587 7.3883 6.76708 6.76708C7.3883 6.14587 8.23085 5.79688 9.10938 5.79688H43.8906C44.7692 5.79688 45.6117 6.14587 46.2329 6.76708C46.8541 7.3883 47.2031 8.23085 47.2031 9.10938ZM43.8906 43.8906V9.10938H9.10938V43.8906H43.8906ZM18.2188 21.5312C17.7795 21.5312 17.3582 21.7057 17.0476 22.0164C16.737 22.327 16.5625 22.7482 16.5625 23.1875V36.4375C16.5625 36.8768 16.737 37.298 17.0476 37.6086C17.3582 37.9193 17.7795 38.0938 18.2188 38.0938C18.658 38.0938 19.0793 37.9193 19.3899 37.6086C19.7005 37.298 19.875 36.8768 19.875 36.4375V23.1875C19.875 22.7482 19.7005 22.327 19.3899 22.0164C19.0793 21.7057 18.658 21.5312 18.2188 21.5312ZM30.6406 21.5312C29.1496 21.5312 27.6928 21.9783 26.4586 22.8148C26.368 22.4174 26.1341 22.0674 25.8016 21.8316C25.469 21.5959 25.0613 21.4911 24.6563 21.5372C24.2513 21.5834 23.8775 21.7772 23.6065 22.0817C23.3356 22.3862 23.1864 22.7799 23.1875 23.1875V36.4375C23.1875 36.8768 23.362 37.298 23.6726 37.6086C23.9832 37.9193 24.4045 38.0938 24.8438 38.0938C25.283 38.0938 25.7043 37.9193 26.0149 37.6086C26.3255 37.298 26.5 36.8768 26.5 36.4375V28.9844C26.5 27.8862 26.9362 26.833 27.7128 26.0565C28.4893 25.28 29.5425 24.8438 30.6406 24.8438C31.7388 24.8438 32.792 25.28 33.5685 26.0565C34.345 26.833 34.7812 27.8862 34.7812 28.9844V36.4375C34.7812 36.8768 34.9557 37.298 35.2664 37.6086C35.577 37.9193 35.9982 38.0938 36.4375 38.0938C36.8768 38.0938 37.298 37.9193 37.6086 37.6086C37.9193 37.298 38.0938 36.8768 38.0938 36.4375V28.9844C38.0938 27.0077 37.3085 25.112 35.9108 23.7142C34.513 22.3165 32.6173 21.5312 30.6406 21.5312Z" fill="white"/>
</svg>
