<svg width="185" height="105" viewBox="0 0 185 105" fill="none" xmlns="http://www.w3.org/2000/svg">
<path d="M10.8333 104.25H174.167C179.781 104.25 184.375 100.369 184.375 95.625C184.375 90.8812 179.781 87 174.167 87H10.8333C5.21875 87 0.625 90.8812 0.625 95.625C0.625 100.369 5.21875 104.25 10.8333 104.25ZM10.8333 61.125H174.167C179.781 61.125 184.375 57.2438 184.375 52.5C184.375 47.7562 179.781 43.875 174.167 43.875H10.8333C5.21875 43.875 0.625 47.7562 0.625 52.5C0.625 57.2438 5.21875 61.125 10.8333 61.125ZM0.625 9.375C0.625 14.1188 5.21875 18 10.8333 18H174.167C179.781 18 184.375 14.1188 184.375 9.375C184.375 4.63125 179.781 0.75 174.167 0.75H10.8333C5.21875 0.75 0.625 4.63125 0.625 9.375Z" fill="white"/>
</svg>
