<svg width="45" height="45" viewBox="0 0 45 45" fill="none" xmlns="http://www.w3.org/2000/svg">
<path d="M37.9688 7.03125V15.4688M37.9688 7.03125H29.5312M37.9688 7.03125L26.7188 18.2812M32.3438 40.7812C16.8112 40.7812 4.21875 28.1888 4.21875 12.6562V8.4375C4.21875 7.31862 4.66322 6.24556 5.45439 5.45439C6.24556 4.66322 7.31862 4.21875 8.4375 4.21875H11.01C11.9775 4.21875 12.8212 4.87688 13.0556 5.81625L15.1294 14.1094C15.3356 14.9344 15.0281 15.8006 14.3475 16.3087L11.9231 18.1275C11.5761 18.3787 11.3194 18.7351 11.191 19.1438C11.0627 19.5525 11.0695 19.9918 11.2106 20.3963C12.3391 23.4658 14.1214 26.2535 16.434 28.566C18.7465 30.8786 21.5342 32.6609 24.6037 33.7894C25.4306 34.0931 26.3437 33.7819 26.8725 33.0769L28.6913 30.6525C28.9402 30.3202 29.2817 30.0687 29.6729 29.9296C30.0642 29.7905 30.4878 29.77 30.8906 29.8706L39.1838 31.9444C40.1213 32.1788 40.7812 33.0225 40.7812 33.99V36.5625C40.7812 37.6814 40.3368 38.7544 39.5456 39.5456C38.7544 40.3368 37.6814 40.7812 36.5625 40.7812H32.3438V40.7812Z" stroke="#F39237" stroke-width="2.5" stroke-linecap="round" stroke-linejoin="round"/>
</svg>
