<svg width="42" height="40" viewBox="0 0 42 40" fill="none" xmlns="http://www.w3.org/2000/svg">
<path d="M26.5708 14.5833C28.5833 14.5833 30.2167 16.2167 30.2167 18.2292V25H30.2083V25.5208C30.2083 25.9352 30.0437 26.3327 29.7507 26.6257C29.4577 26.9187 29.0602 27.0833 28.6458 27.0833C28.2314 27.0833 27.834 26.9187 27.541 26.6257C27.248 26.3327 27.0833 25.9352 27.0833 25.5208V20.8333H27.0917V18.2292C27.0917 18.091 27.0368 17.9586 26.9391 17.8609C26.8414 17.7632 26.709 17.7083 26.5708 17.7083H15.1083C14.9702 17.7083 14.8377 17.7632 14.74 17.8609C14.6424 17.9586 14.5875 18.091 14.5875 18.2292V25H14.5833V25.5208C14.5833 25.9352 14.4187 26.3327 14.1257 26.6257C13.8327 26.9187 13.4352 27.0833 13.0208 27.0833C12.6064 27.0833 12.209 26.9187 11.916 26.6257C11.623 26.3327 11.4583 25.9352 11.4583 25.5208V20.8333H11.4625V18.2292C11.4625 16.2167 13.0938 14.5833 15.1083 14.5833H26.5708ZM38.5417 18.2292V25.5208C38.5417 25.9352 38.7063 26.3327 38.9993 26.6257C39.2923 26.9187 39.6898 27.0833 40.1042 27.0833C40.5186 27.0833 40.916 26.9187 41.209 26.6257C41.5021 26.3327 41.6667 25.9352 41.6667 25.5208V18.2292C41.6667 17.2622 41.2826 16.3349 40.5988 15.6512C39.9151 14.9674 38.9878 14.5833 38.0208 14.5833H30.9896C31.7042 15.4479 32.1708 16.525 32.2771 17.7083H38.0208C38.159 17.7083 38.2914 17.7632 38.3891 17.8609C38.4868 17.9586 38.5417 18.091 38.5417 18.2292ZM0 25.5208C8.73284e-09 25.9352 0.16462 26.3327 0.457646 26.6257C0.750671 26.9187 1.1481 27.0833 1.5625 27.0833C1.9769 27.0833 2.37433 26.9187 2.66735 26.6257C2.96038 26.3327 3.125 25.9352 3.125 25.5208V18.2292C3.125 18.091 3.17987 17.9586 3.27755 17.8609C3.37522 17.7632 3.5077 17.7083 3.64583 17.7083H9.40208C9.50571 16.5605 9.95458 15.471 10.6896 14.5833H3.64583C2.6789 14.5833 1.75157 14.9674 1.06784 15.6512C0.384114 16.3349 0 17.2622 0 18.2292V25.5208ZM20.8333 0C22.4909 0 24.0807 0.65848 25.2528 1.83058C26.4249 3.00269 27.0833 4.5924 27.0833 6.25C27.0833 7.9076 26.4249 9.49732 25.2528 10.6694C24.0807 11.8415 22.4909 12.5 20.8333 12.5C19.1757 12.5 17.586 11.8415 16.4139 10.6694C15.2418 9.49732 14.5833 7.9076 14.5833 6.25C14.5833 4.5924 15.2418 3.00269 16.4139 1.83058C17.586 0.65848 19.1757 0 20.8333 0ZM20.8333 3.125C20.0045 3.125 19.2097 3.45424 18.6236 4.04029C18.0376 4.62634 17.7083 5.4212 17.7083 6.25C17.7083 7.0788 18.0376 7.87366 18.6236 8.45971C19.2097 9.04576 20.0045 9.375 20.8333 9.375C21.6621 9.375 22.457 9.04576 23.043 8.45971C23.6291 7.87366 23.9583 7.0788 23.9583 6.25C23.9583 5.4212 23.6291 4.62634 23.043 4.04029C22.457 3.45424 21.6621 3.125 20.8333 3.125ZM34.375 2.08333C35.7563 2.08333 37.0811 2.63207 38.0578 3.60882C39.0346 4.58557 39.5833 5.91033 39.5833 7.29167C39.5833 8.673 39.0346 9.99776 38.0578 10.9745C37.0811 11.9513 35.7563 12.5 34.375 12.5C32.9937 12.5 31.6689 11.9513 30.6922 10.9745C29.7154 9.99776 29.1667 8.673 29.1667 7.29167C29.1667 5.91033 29.7154 4.58557 30.6922 3.60882C31.6689 2.63207 32.9937 2.08333 34.375 2.08333ZM34.375 5.20833C33.8225 5.20833 33.2926 5.42783 32.9019 5.81853C32.5112 6.20923 32.2917 6.73913 32.2917 7.29167C32.2917 7.8442 32.5112 8.3741 32.9019 8.7648C33.2926 9.15551 33.8225 9.375 34.375 9.375C34.9275 9.375 35.4574 9.15551 35.8481 8.7648C36.2388 8.3741 36.4583 7.8442 36.4583 7.29167C36.4583 6.73913 36.2388 6.20923 35.8481 5.81853C35.4574 5.42783 34.9275 5.20833 34.375 5.20833ZM7.29167 2.08333C8.673 2.08333 9.99776 2.63207 10.9745 3.60882C11.9513 4.58557 12.5 5.91033 12.5 7.29167C12.5 8.673 11.9513 9.99776 10.9745 10.9745C9.99776 11.9513 8.673 12.5 7.29167 12.5C5.91033 12.5 4.58557 11.9513 3.60882 10.9745C2.63207 9.99776 2.08333 8.673 2.08333 7.29167C2.08333 5.91033 2.63207 4.58557 3.60882 3.60882C4.58557 2.63207 5.91033 2.08333 7.29167 2.08333ZM7.29167 5.20833C6.73913 5.20833 6.20923 5.42783 5.81853 5.81853C5.42783 6.20923 5.20833 6.73913 5.20833 7.29167C5.20833 7.8442 5.42783 8.3741 5.81853 8.7648C6.20923 9.15551 6.73913 9.375 7.29167 9.375C7.8442 9.375 8.37411 9.15551 8.76481 8.7648C9.15551 8.3741 9.375 7.8442 9.375 7.29167C9.375 6.73913 9.15551 6.20923 8.76481 5.81853C8.37411 5.42783 7.8442 5.20833 7.29167 5.20833ZM1.5625 29.1667C1.1481 29.1667 0.750671 29.3313 0.457646 29.6243C0.16462 29.9173 0 30.3148 0 30.7292V31.7708C0 33.8428 0.8231 35.83 2.28823 37.2951C3.75336 38.7602 5.7405 39.5833 7.8125 39.5833H33.8542C35.9262 39.5833 37.9133 38.7602 39.3784 37.2951C40.8436 35.83 41.6667 33.8428 41.6667 31.7708V30.7292C41.6667 30.3148 41.5021 29.9173 41.209 29.6243C40.916 29.3313 40.5186 29.1667 40.1042 29.1667H1.5625ZM7.8125 36.4583C6.65951 36.4583 5.54697 36.0333 4.68759 35.2646C3.82821 34.496 3.28228 33.4375 3.15417 32.2917H38.5125C38.3844 33.4375 37.8385 34.496 36.9791 35.2646C36.1197 36.0333 35.0072 36.4583 33.8542 36.4583H7.8125Z" fill="#F39237"/>
</svg>
