<svg width="54" height="42" viewBox="0 0 54 42" fill="none" xmlns="http://www.w3.org/2000/svg">
<path d="M46.9189 11.6291V12.8839C46.9189 25.5197 36.5946 39.9999 17.7027 39.9999C12.1256 40.0111 6.66693 38.5062 2 35.6709C2.81051 35.7731 3.62807 35.8192 4.44595 35.8089C9.06893 35.8207 13.5619 34.3888 17.2027 31.7434C15.055 31.714 12.9718 31.0568 11.2494 29.8652C9.52696 28.6735 8.25283 27.0081 7.60811 25.1056C8.24785 25.2315 8.90009 25.2946 9.55405 25.2938C10.4672 25.294 11.3763 25.18 12.2568 24.955C9.93051 24.5244 7.83772 23.3566 6.33648 21.6513C4.83524 19.946 4.01886 17.8093 4.02703 15.6068V15.4813C5.45027 16.2196 7.0459 16.6244 8.67568 16.6608C6.50621 15.3352 4.96376 13.2905 4.36347 10.9443C3.76319 8.59812 4.15038 6.12765 5.44595 4.03767C8.02738 6.98578 11.2481 9.39645 14.8987 11.113C18.5493 12.8295 22.5481 13.8134 26.6351 14.0007C26.4328 13.2885 26.3373 12.5538 26.3514 11.8174C26.2753 9.87107 26.847 7.95029 27.9888 6.31656C29.1306 4.68284 30.7869 3.41556 32.7322 2.68729C34.6774 1.95901 36.8172 1.80513 38.86 2.2466C40.9029 2.68807 42.7496 3.70343 44.1486 5.15443C46.4483 4.72349 48.6544 3.93891 50.6757 2.83307C49.9091 5.08085 48.2785 6.98806 46.0946 8.19102C48.1346 7.93001 50.1235 7.39753 52 6.60999C50.6401 8.54944 48.9196 10.2489 46.9189 11.6291Z" stroke="#FFF9F9" stroke-width="3" stroke-linecap="round" stroke-linejoin="round"/>
</svg>
